<svg width="40" height="40" fill="none"><path d="M20 40c11.046 0 20-8.954 20-20S31.046 0 20 0 0 8.954 0 20s8.954 20 20 20z" fill="#CCC"></path><path d="M33.34 20a2.92 2.92 0 0 0-4.94-2 14.24 14.24 0 0 0-7.7-2.46L22 9.3l4.28.9a2 2 0 1 0 .26-1.22L21.64 8a.62.62 0 0 0-.74.48l-1.48 6.94a14.28 14.28 0 0 0-7.8 2.46 2.918 2.918 0 0 0-4.884 1.663A2.92 2.92 0 0 0 8.4 22.66a5.74 5.74 0 0 0 0 .88c0 4.48 5.22 8.12 11.66 8.12s11.66-3.64 11.66-8.12a5.745 5.745 0 0 0 0-.88A2.92 2.92 0 0 0 33.34 20zm-20 2a2 2 0 1 1 4 0 2 2 0 0 1-4 0zm11.62 5.5a7.68 7.68 0 0 1-4.94 1.54 7.68 7.68 0 0 1-4.94-1.54.54.54 0 0 1 .76-.76A6.54 6.54 0 0 0 20 28a6.56 6.56 0 0 0 4.18-1.22.559.559 0 0 1 .78.8v-.08zm-.36-3.42a2 2 0 1 1 2-2 2.001 2.001 0 0 1-2.02 2.08l.02-.08z" fill="#fff" ></path></svg>
