<svg class="section__list-item-icon" width="18" height="16" viewBox="0 0 18 16" fill="none" xmlns="http://www.w3.org/2000/svg"><path fill-rule="evenodd" clip-rule="evenodd" d="M6 5C6 3.346 7.346 2 9 2C10.654 2 12 3.346 12 5V7.843C11.489 8.013 10.53 8.235 9 8.235C7.465 8.235 6.505 8.012 6 7.844V5ZM14 6.895C16.409 7.355 18 8.136 18 9.026C18 10.444 13.97 11.594 9 11.594C4.03 11.594 0 10.444 0 9.026C0 8.136 1.59 7.355 4 6.895V5C4 2.243 6.243 0 9 0C11.757 0 14 2.243 14 5V6.895ZM1.74 11.599C3.892 12.343 6.867 12.594 9 12.594C11.133 12.594 14.108 12.344 16.26 11.599L13.305 13.719C12.0496 14.6181 10.5442 15.1015 9 15.1015C7.45585 15.1015 5.95044 14.6181 4.695 13.719L1.74 11.599Z"></path></svg>
