<svg class="section__list-item-icon" viewBox="0 0 20 20" xmlns="http://www.w3.org/2000/svg"><path d="M8.10849995,9.1565 L2.79999995,3.848 C3.17249995,3.6285 3.60499995,3.5 4.06849995,3.5 L16.5685,3.5 C17.0315,3.5 17.464,3.6285 17.8365,3.848 L12.528,9.1565 C11.31,10.375 9.32699995,10.375 8.10849995,9.1565 Z M13.1435,10.3085 L18.452,5 C18.6715,5.3725 18.8,5.805 18.8,6.2685 L18.8,13.7685 C18.8,15.149 17.6805,16.2685 16.3,16.2685 L3.79999995,16.2685 C2.41899995,16.2685 1.29999995,15.149 1.29999995,13.7685 L1.29999995,6.2685 C1.29999995,5.805 1.42849995,5.3725 1.64799995,5 L6.95649995,10.3085 C7.80949995,11.1615 8.92949995,11.588 10.05,11.588 C11.17,11.588 12.2905,11.1615 13.1435,10.3085 Z"></path></svg>
