<svg xmlns="http://www.w3.org/2000/svg" viewBox="0 0 85 20"><g fill="none"><g transform="translate(28 1)"><path d="M54.63 16.52V7.68h1a1 1 0 0 0 1.09-1v-.03a1 1 0 0 0-.93-1.12h-1.16V3.88a1.23 1.23 0 0 0-1.12-1.23 1.2 1.2 0 0 0-1.27 1.11v1.79h-1a1 1 0 0 0-1.09 1v.07a1 1 0 0 0 .93 1.12h1.13v8.81c0 .657.533 1.19 1.19 1.19a1.19 1.19 0 0 0 1.25-1.12.17.17 0 0 0-.02-.1z"/><circle cx="47.26" cy="3.44" r="2.12" fill="#FF4500"/><path d="M48.44 7.81a1.19 1.19 0 1 0-2.38 0v8.71a1.19 1.19 0 1 0 2.38 0V7.81zm-17.6-6.62a1.19 1.19 0 1 0-2.38 0v5.32a4.11 4.11 0 0 0-3-1.21c-3.1 0-5.69 2.85-5.69 6.35 0 3.5 2.51 6.35 5.65 6.35a4.26 4.26 0 0 0 3.1-1.23 1.17 1.17 0 0 0 1.47.8 1.2 1.2 0 0 0 .85-1.05V1.19zm-5.43 14.45c-1.83 0-3.32-1.77-3.32-4s1.48-4 3.32-4c1.84 0 3.31 1.78 3.31 4 0 2.22-1.47 3.95-3.3 3.95l-.01.05zM43.28 1.19A1.19 1.19 0 0 0 42.09 0a1.18 1.18 0 0 0-1.18 1.19v5.32a4.15 4.15 0 0 0-3-1.21c-3.1 0-5.69 2.85-5.69 6.35 0 3.5 2.5 6.35 5.64 6.35A4.26 4.26 0 0 0 41 16.77a1.17 1.17 0 0 0 1.47.8 1.19 1.19 0 0 0 .85-1.05l-.04-15.33zm-5.43 14.45c-1.83 0-3.31-1.77-3.31-4s1.47-4 3.31-4 3.31 1.78 3.31 4c0 2.22-1.47 3.95-3.3 3.95l-.01.05zm-20.58-3.2a1.49 1.49 0 0 0 1.59-1.38v-.15a4.81 4.81 0 0 0-.1-.85 5.83 5.83 0 0 0-5.51-4.76c-3.1 0-5.69 2.85-5.69 6.35 0 3.5 2.55 6.35 5.69 6.35a5.66 5.66 0 0 0 4.39-1.84 1.23 1.23 0 0 0-.08-1.74l-.11-.09a1.29 1.29 0 0 0-1.58.17 3.91 3.91 0 0 1-2.62 1.12A3.54 3.54 0 0 1 10 12.44h7.27zm-4-4.76a3.41 3.41 0 0 1 3.09 2.64h-6.22a3.41 3.41 0 0 1 3.1-2.64h.03zM7.68 6.53a1.19 1.19 0 0 0-1-1.18 4.56 4.56 0 0 0-4.29 1.56v-.16a1.2 1.2 0 0 0-2.39 0v9.77a1.23 1.23 0 0 0 1.12 1.24 1.19 1.19 0 0 0 1.26-1.24v-5A3.62 3.62 0 0 1 5.81 7.7c.18-.01.36-.01.54 0h.24a1.18 1.18 0 0 0 1.09-1.17z"/></g><circle cx="10" cy="10" r="10" fill="#FF4500"/><path fill="#FFF" d="M16.67 10a1.46 1.46 0 0 0-2.47-1 7.12 7.12 0 0 0-3.85-1.23L11 4.65l2.14.45a1 1 0 1 0 .13-.61L10.82 4a.31.31 0 0 0-.37.24l-.74 3.47a7.14 7.14 0 0 0-3.9 1.23 1.46 1.46 0 1 0-1.61 2.39 2.87 2.87 0 0 0 0 .44c0 2.24 2.61 4.06 5.83 4.06s5.83-1.82 5.83-4.06a2.87 2.87 0 0 0 0-.44 1.46 1.46 0 0 0 .81-1.33zm-10 1a1 1 0 1 1 2 0 1 1 0 0 1-2 0zm5.81 2.75a3.84 3.84 0 0 1-2.47.77 3.84 3.84 0 0 1-2.47-.77.27.27 0 0 1 .38-.38A3.27 3.27 0 0 0 10 14a3.28 3.28 0 0 0 2.09-.61.28.28 0 1 1 .39.4v-.04zm-.18-1.71a1 1 0 1 1 1-1 1 1 0 0 1-1.01 1.04l.01-.04z"/></g></svg>
