<svg xmlns="http://www.w3.org/2000/svg" class="header__karma-thing" viewBox="0 0 11 10"><path d="M2.36538 1.89791C3.50277 1.89791 4.51442 2.58139 4.94329 3.63791C4.97061 3.70561 4.97174 3.78104 4.94647 3.84953C4.9212 3.91801 4.87133 3.97463 4.80659 4.00835C4.53892 4.14655 4.32072 4.36439 4.18207 4.63183C4.14871 4.69691 4.09215 4.74712 4.02356 4.77253C3.95497 4.79793 3.87935 4.79669 3.81164 4.76904C3.2972 4.56264 2.85647 4.20673 2.54639 3.74728C2.23631 3.28783 2.07112 2.74595 2.07216 2.19165C2.07216 2.02991 2.20364 1.89791 2.36538 1.89791ZM6.15007 4.00835C6.08525 3.97472 6.03531 3.9181 6.01003 3.84959C5.98474 3.78108 5.98594 3.70559 6.01338 3.63791C6.2197 3.12338 6.57558 2.68254 7.03503 2.37236C7.49449 2.06218 8.03641 1.89691 8.59077 1.89791C8.75355 1.89791 8.88399 2.02887 8.88399 2.19165C8.88503 2.74595 8.71984 3.28783 8.40976 3.74728C8.09967 4.20673 7.65895 4.56264 7.14451 4.76904C7.07688 4.79698 7.00122 4.79842 6.93258 4.77309C6.86393 4.74776 6.80734 4.69751 6.77407 4.63235C6.63532 4.36504 6.41738 4.14711 6.15007 4.00835ZM7.14503 5.83965C7.65929 6.04625 8.09983 6.40223 8.40979 6.86165C8.71976 7.32107 8.88493 7.86284 8.88399 8.41704C8.88399 8.57878 8.75355 8.71078 8.59077 8.71078C8.03644 8.71164 7.49459 8.54632 7.03515 8.23616C6.57572 7.926 6.21981 7.48524 6.01338 6.97078C5.98618 6.90308 5.98511 6.82769 6.01037 6.75923C6.03563 6.69078 6.08542 6.63416 6.15007 6.60035C6.41763 6.46127 6.63573 6.24298 6.77459 5.97531C6.80822 5.9105 6.8649 5.86063 6.93346 5.83552C7.00202 5.81042 7.0775 5.81189 7.14503 5.83965ZM4.80659 6.59983C4.87146 6.63356 4.92141 6.69027 4.94669 6.75887C4.97197 6.82747 4.97076 6.90303 4.94329 6.97078C4.73676 7.48528 4.38076 7.92605 3.92124 8.23621C3.46172 8.54637 2.91978 8.71168 2.36538 8.71078C2.28747 8.71078 2.21276 8.67984 2.15767 8.62475C2.10259 8.56966 2.07164 8.49495 2.07164 8.41704C2.07164 7.27965 2.75512 6.26852 3.81164 5.83965C3.87927 5.8123 3.95466 5.81109 4.02313 5.83626C4.09161 5.86143 4.14826 5.91118 4.18207 5.97583C4.3219 6.24504 4.53738 6.46 4.80659 6.59983ZM5.47807 3.39113C5.23196 2.8052 4.82609 2.30025 4.30677 1.93391C4.47981 1.39652 4.84233 0.940359 5.32677 0.650436C5.37232 0.623123 5.42444 0.608696 5.47755 0.608696C5.53066 0.608696 5.58278 0.623123 5.62833 0.650436C6.11307 0.94004 6.47596 1.39602 6.64938 1.93339C6.12998 2.29987 5.7241 2.805 5.47807 3.39113ZM10.132 5.15304C10.1878 5.24591 10.1878 5.36174 10.132 5.45565C9.84199 5.94003 9.38586 6.30253 8.84851 6.47565C8.48214 5.95624 7.97722 5.5502 7.39129 5.30383C7.97744 5.05809 8.48261 4.65236 8.84903 4.13304C9.38642 4.30586 9.84248 4.66845 10.132 5.15304ZM5.47807 7.21704C5.72416 7.80343 6.13024 8.30876 6.6499 8.67531C6.47637 9.21248 6.11349 9.66826 5.62886 9.95774C5.58342 9.98539 5.53126 10 5.47807 10C5.42489 10 5.37273 9.98539 5.32729 9.95774C4.84285 9.66817 4.48016 9.2124 4.30677 8.67531C4.82624 8.30869 5.23213 7.80336 5.47807 7.21704ZM3.56486 5.30435C2.97873 5.55038 2.47359 5.95626 2.10712 6.47565C1.56991 6.3025 1.11396 5.94 0.82416 5.45565C0.796571 5.4102 0.781982 5.35804 0.781982 5.30487C0.781982 5.2517 0.796571 5.19954 0.82416 5.15409C1.11364 4.66945 1.56942 4.30657 2.10659 4.13304C2.47321 4.65252 2.97854 5.0584 3.56486 5.30435Z"/></svg>