<svg class="section__list-item-icon" width="18" height="14" viewBox="0 0 18 14" fill="none" xmlns="http://www.w3.org/2000/svg"><path d="M15.9998 -0.000488281C17.1028 -0.000488281 17.9998 0.897511 17.9998 1.99951V11.9995C17.9998 13.1025 17.1028 13.9995 15.9998 13.9995H1.9998C0.897802 13.9995 -0.000198364 13.1025 -0.000198364 11.9995V1.99951C-0.000198364 0.897511 0.897802 -0.000488281 1.9998 -0.000488281H15.9998ZM12.9648 10.3525C14.2718 10.3525 15.3188 9.67451 15.8278 8.56651L14.1818 7.97751C13.9318 8.47651 13.4528 8.81651 12.8338 8.81651C12.0158 8.81651 11.3478 8.05751 11.3478 6.99951C11.3478 5.95251 12.0058 5.17351 12.8438 5.17351C13.4528 5.17351 13.9218 5.50251 14.1308 5.96151L15.6968 5.24351C15.1988 4.27551 14.2108 3.63651 12.9648 3.63651C11.0588 3.63651 9.5118 5.13351 9.5118 6.99951C9.5118 8.87551 11.0588 10.3525 12.9648 10.3525ZM5.6248 10.3635C7.5408 10.3635 9.0878 8.87551 9.0878 6.99951C9.0878 5.13351 7.5408 3.63651 5.6248 3.63651C3.7188 3.63651 2.1718 5.13351 2.1718 6.99951C2.1718 8.87551 3.7188 10.3635 5.6248 10.3635ZM5.625 5.16411C6.562 5.16411 7.262 5.94211 7.262 7.00011C7.262 8.04811 6.562 8.83611 5.625 8.83611C4.697 8.83611 3.998 8.04811 3.998 7.00011C3.998 5.94211 4.697 5.16411 5.625 5.16411Z"></path></svg>
